<svg viewBox="0 0 620 200" xmlns="http://www.w3.org/2000/svg">
    <!-- Studio floor -->
    <rect width="620" height="200" fill="#eef1fb" rx="12"/>
    <!-- Floor line -->
    <rect x="0" y="165" width="620" height="35" fill="#dde3f5"/>
    <!-- ON AIR sign -->
    <rect x="258" y="12" width="104" height="26" rx="6" fill="#c0392b"/>
    <circle cx="262" cy="25" r="5" fill="#ff6b6b" opacity="0.9"/>
    <text x="305" y="30" text-anchor="middle" fill="white" font-family="Arial" font-weight="bold" font-size="12">ON AIR</text>

    <!-- LEFT HOST (Alex) -->
    <rect x="30" y="130" width="170" height="38" rx="10" fill="#5c6bc0"/>
    <rect x="30" y="100" width="170" height="38" rx="10" fill="#7986cb"/>
    <rect x="25" y="108" width="22" height="60" rx="8" fill="#5c6bc0"/>
    <rect x="183" y="108" width="22" height="60" rx="8" fill="#5c6bc0"/>
    <rect x="88" y="88" width="54" height="48" rx="10" fill="#c0392b"/>
    <ellipse cx="115" cy="72" rx="22" ry="24" fill="#f0c27f"/>
    <ellipse cx="115" cy="52" rx="22" ry="10" fill="#3b2314"/>
    <circle cx="107" cy="70" r="3" fill="#3b2314"/>
    <circle cx="123" cy="70" r="3" fill="#3b2314"/>
    <path d="M 108 80 Q 115 86 122 80" stroke="#3b2314" stroke-width="1.5" fill="none"/>
    <path d="M 93 68 Q 115 48 137 68" stroke="#222" stroke-width="5" fill="none" stroke-linecap="round"/>
    <rect x="88" y="65" width="14" height="20" rx="6" fill="#333"/>
    <rect x="128" y="65" width="14" height="20" rx="6" fill="#333"/>
    <rect x="90" y="67" width="10" height="16" rx="4" fill="#555"/>
    <rect x="130" y="67" width="10" height="16" rx="4" fill="#555"/>
    <rect x="148" y="120" width="3" height="30" fill="#888"/>
    <line x1="135" y1="150" x2="165" y2="150" stroke="#888" stroke-width="2.5" stroke-linecap="round"/>
    <rect x="141" y="104" width="17" height="28" rx="8" fill="#444"/>
    <rect x="143" y="106" width="13" height="24" rx="6" fill="#666"/>
    <line x1="144" y1="110" x2="155" y2="110" stroke="#888" stroke-width="1" opacity="0.6"/>
    <line x1="144" y1="114" x2="155" y2="114" stroke="#888" stroke-width="1" opacity="0.6"/>
    <line x1="144" y1="118" x2="155" y2="118" stroke="#888" stroke-width="1" opacity="0.6"/>
    <line x1="144" y1="122" x2="155" y2="122" stroke="#888" stroke-width="1" opacity="0.6"/>
    <text x="115" y="190" text-anchor="middle" fill="#3949ab" font-family="Arial" font-size="13" font-weight="bold">Alex</text>

    <!-- SOUND WAVES -->
    <path d="M 287 85 Q 310 68 333 85" stroke="#e74c3c" stroke-width="2.5" fill="none" opacity="0.9" stroke-linecap="round"/>
    <path d="M 277 97 Q 310 72 343 97" stroke="#e74c3c" stroke-width="2" fill="none" opacity="0.55" stroke-linecap="round"/>
    <path d="M 267 109 Q 310 76 353 109" stroke="#e74c3c" stroke-width="1.5" fill="none" opacity="0.25" stroke-linecap="round"/>
    <!-- Center table -->
    <rect x="248" y="138" width="124" height="12" rx="5" fill="#5c6bc0"/>
    <rect x="265" y="150" width="10" height="18" rx="3" fill="#5c6bc0"/>
    <rect x="345" y="150" width="10" height="18" rx="3" fill="#5c6bc0"/>

    <!-- RIGHT HOST (Sam) -->
    <rect x="420" y="130" width="170" height="38" rx="10" fill="#5c6bc0"/>
    <rect x="420" y="100" width="170" height="38" rx="10" fill="#7986cb"/>
    <rect x="415" y="108" width="22" height="60" rx="8" fill="#5c6bc0"/>
    <rect x="573" y="108" width="22" height="60" rx="8" fill="#5c6bc0"/>
    <rect x="478" y="88" width="54" height="48" rx="10" fill="#16a085"/>
    <ellipse cx="505" cy="72" rx="22" ry="24" fill="#f0c27f"/>
    <ellipse cx="505" cy="50" rx="22" ry="9" fill="#1a0a00"/>
    <rect x="483" y="48" width="8" height="22" rx="4" fill="#1a0a00"/>
    <rect x="509" y="48" width="8" height="22" rx="4" fill="#1a0a00"/>
    <circle cx="497" cy="70" r="3" fill="#3b2314"/>
    <circle cx="513" cy="70" r="3" fill="#3b2314"/>
    <path d="M 498 80 Q 505 86 512 80" stroke="#3b2314" stroke-width="1.5" fill="none"/>
    <path d="M 483 68 Q 505 48 527 68" stroke="#222" stroke-width="5" fill="none" stroke-linecap="round"/>
    <rect x="478" y="65" width="14" height="20" rx="6" fill="#333"/>
    <rect x="518" y="65" width="14" height="20" rx="6" fill="#333"/>
    <rect x="480" y="67" width="10" height="16" rx="4" fill="#555"/>
    <rect x="520" y="67" width="10" height="16" rx="4" fill="#555"/>
    <rect x="469" y="120" width="3" height="30" fill="#888"/>
    <line x1="456" y1="150" x2="486" y2="150" stroke="#888" stroke-width="2.5" stroke-linecap="round"/>
    <rect x="462" y="104" width="17" height="28" rx="8" fill="#444"/>
    <rect x="464" y="106" width="13" height="24" rx="6" fill="#666"/>
    <line x1="465" y1="110" x2="476" y2="110" stroke="#888" stroke-width="1" opacity="0.6"/>
    <line x1="465" y1="114" x2="476" y2="114" stroke="#888" stroke-width="1" opacity="0.6"/>
    <line x1="465" y1="118" x2="476" y2="118" stroke="#888" stroke-width="1" opacity="0.6"/>
    <line x1="465" y1="122" x2="476" y2="122" stroke="#888" stroke-width="1" opacity="0.6"/>
    <text x="505" y="190" text-anchor="middle" fill="#3949ab" font-family="Arial" font-size="13" font-weight="bold">Sam</text>
</svg>
